<?xml version="1.0" encoding="UTF-8"?>
<svg id="_레이어_1" data-name="레이어_1" xmlns="http://www.w3.org/2000/svg" version="1.1" viewBox="0 0 1200 630">
  <!-- Generator: Adobe Illustrator 29.2.1, SVG Export Plug-In . SVG Version: 2.1.0 Build 116)  -->
  <path d="M729.6,272.82v119.28c0,17.09-13.78,30.88-30.88,30.88h-31.61v-132.14c0-3.12-2.57-5.7-5.7-5.7s-5.7,2.57-5.7,5.7v131.96h-108.25c-3.12-5.7-5.7-11.76-7.9-18.38-9.74-28.49-12.13-64.69-7.54-113.95.37-3.12-2.02-5.88-5.15-6.06-3.12-.37-5.88,2.02-6.06,5.15-4.78,50.91-2.21,88.58,8.09,118.73,1.84,5.15,3.68,10.11,6.06,14.7h-44.84c-17.09,0-30.88-13.78-30.88-30.88v-119.28c0-18.19,7.35-34.55,19.3-46.5s28.3-19.3,46.5-19.3c36.21,0,65.61,29.41,65.61,65.61v94.83c0,1.65,1.29,2.94,2.94,2.94h1.65c1.65,0,2.94-1.29,2.94-2.94v-94.65c0-36.21,29.41-65.61,65.61-65.61s65.8,29.41,65.8,65.61Z"/>
  <circle cx="750.19" cy="243.42" r="12.68"/>
  <g>
    <path d="M742.1,343.03v-4.59h2.57c-2.02-1.65-2.94-3.49-2.94-5.88,0-1.29.18-2.21.74-3.12.55-.92,1.29-1.65,2.21-2.21-.92-.74-1.65-1.65-2.21-2.57s-.74-2.02-.74-3.12c0-1.29.37-2.57.92-3.49s1.29-1.65,2.39-2.21c.74-.37,2.02-.55,3.86-.55h11.95v4.96h-10.66c-1.84,0-3.12.18-3.68.55-.74.37-1.1,1.1-1.1,2.02,0,.74.18,1.29.55,2.02.37.55,1.1,1.1,1.84,1.29s2.02.37,3.86.37h9.01v4.96h-10.29c-1.84,0-2.94,0-3.49.18-.55.18-.92.37-1.1.74-.18.37-.37.92-.37,1.47,0,.74.18,1.47.55,2.02.37.55.92,1.1,1.84,1.29.74.18,2.02.37,3.86.37h9.01v4.96h-18.56v.55Z"/>
    <path d="M742.1,309.21v-5.33l13.23-4.41-13.23-4.41v-5.15l18.01,6.62,3.31,1.1c1.1.37,1.84.92,2.57,1.29.55.37,1.1.92,1.47,1.29s.55,1.1.92,1.84c.18.74.37,1.65.37,2.57s-.18,1.84-.37,2.76l-3.86.37c.18-.74.18-1.47.18-2.02,0-1.1-.37-2.02-1.1-2.57-.74-.55-1.47-.92-2.57-1.29l-18.93,7.35Z"/>
    <path d="M760.85,285.32h-3.86l-8.09-6.98c-1.29-1.1-2.21-2.02-2.76-2.57v8.82h-4.04v-15.44h3.49l8.27,7.17,2.76,2.57c0-1.29-.18-2.21-.18-2.57v-7.72h4.41v16.72h0Z"/>
  </g>
</svg>