<?xml version="1.0" encoding="UTF-8"?>
<svg id="_레이어_1" xmlns="http://www.w3.org/2000/svg" version="1.1" viewBox="0 0 1200 630">
  <!-- Generator: Adobe Illustrator 29.6.1, SVG Export Plug-In . SVG Version: 2.1.1 Build 9)  -->
  <path d="M715.6,272.8v119.3c0,17.1-13.8,30.9-30.9,30.9h-31.6v-132.1c0-3.1-2.6-5.7-5.7-5.7s-5.7,2.6-5.7,5.7v132h-108.2c-3.1-5.7-5.7-11.8-7.9-18.4-9.7-28.5-12.1-64.7-7.5-114,.4-3.1-2-5.9-5.2-6.1-3.1-.4-5.9,2-6.1,5.1-4.8,50.9-2.2,88.6,8.1,118.7,1.8,5.1,3.7,10.1,6.1,14.7h-44.8c-17.1,0-30.9-13.8-30.9-30.9v-119.3c0-18.2,7.4-34.6,19.3-46.5s28.3-19.3,46.5-19.3c36.2,0,65.6,29.4,65.6,65.6v94.8c0,1.6,1.3,2.9,2.9,2.9h1.7c1.7,0,2.9-1.3,2.9-2.9v-94.6c0-36.2,29.4-65.6,65.6-65.6s65.8,29.4,65.8,65.6h0Z"/>
  <circle cx="736.2" cy="243.4" r="12.7"/>
  <g>
    <path d="M728.1,343v-4.6h2.6c-2-1.6-2.9-3.5-2.9-5.9s.2-2.2.7-3.1c.5-.9,1.3-1.6,2.2-2.2-.9-.7-1.7-1.6-2.2-2.6s-.7-2-.7-3.1.4-2.6.9-3.5,1.3-1.6,2.4-2.2c.7-.4,2-.5,3.9-.5h12v5h-10.7c-1.8,0-3.1.2-3.7.5-.7.4-1.1,1.1-1.1,2s.2,1.3.5,2c.4.5,1.1,1.1,1.8,1.3s2,.4,3.9.4h9v5h-10.3c-1.8,0-2.9,0-3.5.2s-.9.4-1.1.7-.4.9-.4,1.5.2,1.5.5,2,.9,1.1,1.8,1.3c.7.2,2,.4,3.9.4h9v5h-18.6v.5h0Z"/>
    <path d="M728.1,309.2v-5.3l13.2-4.4-13.2-4.4v-5.1l18,6.6,3.3,1.1c1.1.4,1.8.9,2.6,1.3.5.4,1.1.9,1.5,1.3s.5,1.1.9,1.8c.2.7.4,1.6.4,2.6s-.2,1.8-.4,2.8l-3.9.4c.2-.7.2-1.5.2-2,0-1.1-.4-2-1.1-2.6-.7-.5-1.5-.9-2.6-1.3l-18.9,7.4h0Z"/>
    <path d="M746.9,285.3h-3.9l-8.1-7c-1.3-1.1-2.2-2-2.8-2.6v8.8h-4v-15.4h3.5l8.3,7.2,2.8,2.6c0-1.3-.2-2.2-.2-2.6v-7.7h4.4v16.7h0Z"/>
  </g>
</svg>